<?xml version="1.0" standalone="no"?>
<!DOCTYPE svg PUBLIC "-//W3C//DTD SVG 20010904//EN"
 "http://www.w3.org/TR/2001/REC-SVG-20010904/DTD/svg10.dtd">
<svg version="1.0" xmlns="http://www.w3.org/2000/svg"
 width="300.000000pt" height="300.000000pt" viewBox="0 0 300.000000 300.000000"
 preserveAspectRatio="xMidYMid meet">
<metadata>
Created by potrace 1.10, written by Peter Selinger 2001-2011
</metadata>
<g transform="translate(0.000000,300.000000) scale(0.100000,-0.100000)"
fill="#000000" stroke="none">
<path d="M2171 2694 c-213 -57 -350 -269 -313 -481 l11 -68 -184 -185 -185
-185 -185 185 -185 185 10 35 c16 55 12 163 -8 228 -40 127 -150 241 -267 278
-44 14 -57 15 -69 4 -22 -17 -20 -59 1 -66 202 -66 309 -243 258 -430 l-18
-66 204 -204 204 -204 -80 -80 -80 -80 -202 202 -202 201 -75 -17 c-62 -15
-86 -16 -135 -8 -269 48 -386 343 -221 560 45 59 46 64 24 86 -24 24 -42 19
-79 -21 -107 -116 -135 -312 -66 -458 34 -74 106 -155 169 -192 95 -56 225
-77 316 -52 l39 11 186 -186 186 -186 -185 -185 -185 -185 -40 11 c-23 7 -75
9 -122 6 -279 -17 -467 -296 -377 -559 27 -82 39 -77 188 70 72 71 141 135
153 141 39 20 80 13 115 -18 28 -25 33 -36 33 -75 0 -45 -1 -47 -137 -184 -76
-76 -138 -145 -138 -153 1 -36 38 -56 133 -69 280 -41 527 211 479 488 l-11
67 184 185 185 185 185 -185 185 -185 -11 -40 c-6 -22 -9 -76 -7 -120 13 -248
250 -440 492 -398 81 14 120 33 124 59 6 41 -20 48 -107 30 -206 -41 -380 73
-423 277 -11 53 -6 114 18 195 6 20 -20 50 -195 225 l-201 203 80 79 80 80
203 -203 204 -204 58 17 c165 49 354 -44 416 -202 29 -76 31 -179 5 -250 -16
-44 -17 -54 -6 -68 8 -9 24 -15 39 -13 22 3 29 12 48 68 69 202 -27 427 -224
521 -58 28 -82 34 -160 37 -55 3 -105 0 -125 -7 l-32 -12 -186 186 -185 185
185 185 185 185 68 -12 c133 -22 269 23 368 121 65 66 104 143 121 239 10 60
9 82 -5 147 -31 144 -45 142 -217 -30 -83 -84 -144 -137 -161 -140 -39 -9 -95
18 -113 54 -35 67 -18 97 153 266 61 60 111 117 111 126 0 24 -19 36 -85 54
-73 18 -143 18 -214 -1z m242 -39 c9 -4 17 -12 17 -19 0 -6 -45 -56 -101 -111
-137 -135 -159 -166 -159 -224 0 -87 64 -149 143 -138 36 5 56 21 171 136 72
72 139 131 149 131 29 0 39 -47 35 -165 -3 -106 -5 -113 -41 -177 -61 -109
-143 -168 -270 -194 -56 -12 -85 -13 -139 -4 -44 6 -75 7 -86 1 -9 -5 -97 -90
-194 -188 -129 -129 -178 -186 -178 -203 0 -16 52 -75 189 -213 164 -164 193
-189 213 -183 99 28 236 12 323 -39 60 -36 132 -116 162 -181 34 -74 42 -188
19 -266 -15 -53 -31 -77 -42 -65 -3 3 2 28 11 56 26 78 18 200 -18 274 -80
163 -249 245 -427 207 l-61 -13 -198 197 c-109 108 -204 196 -211 196 -20 0
-170 -151 -177 -178 -5 -21 20 -50 187 -217 l193 -194 -13 -85 c-12 -75 -11
-93 4 -153 9 -37 31 -92 49 -121 83 -139 261 -211 411 -168 65 19 87 14 35 -8
-176 -73 -410 27 -497 212 -25 53 -27 67 -27 190 l0 133 -186 184 c-102 102
-191 185 -199 185 -8 0 -97 -83 -199 -185 l-186 -185 0 -127 c0 -122 -1 -131
-31 -193 -54 -114 -132 -182 -247 -215 -89 -26 -253 -15 -273 17 -4 6 52 69
124 142 72 72 135 143 141 158 30 81 -41 178 -130 178 -46 0 -81 -26 -208
-155 -63 -63 -120 -115 -127 -115 -42 0 -53 206 -16 300 64 165 259 272 437
241 42 -8 71 -8 83 -2 9 5 97 90 195 188 129 131 177 186 177 203 0 17 -48 72
-177 203 -98 98 -185 182 -194 187 -9 5 -43 5 -83 -2 -176 -29 -358 67 -434
230 -24 50 -27 69 -27 162 0 98 2 110 32 171 32 65 77 118 90 106 4 -4 -3 -20
-16 -35 -12 -15 -34 -52 -49 -82 -38 -77 -44 -210 -12 -290 45 -115 138 -202
249 -234 65 -19 112 -20 198 -4 l64 12 199 -199 198 -198 28 21 c56 39 154
150 154 173 0 15 -59 81 -196 219 l-196 198 12 39 c7 22 11 77 9 124 -3 68
-10 95 -33 144 -38 76 -108 145 -188 184 -47 22 -57 30 -38 30 37 1 125 -48
177 -99 25 -25 60 -74 77 -110 30 -63 31 -70 31 -198 l0 -132 186 -185 c102
-102 191 -185 199 -185 8 0 99 85 203 189 l189 189 -7 89 c-12 154 18 247 109
338 89 89 193 125 324 114 42 -4 85 -10 95 -14z"/>
<path d="M2190 2644 c-74 -20 -127 -53 -183 -113 -75 -80 -92 -126 -90 -251 0
-58 3 -115 5 -127 2 -18 -102 -127 -522 -548 l-525 -527 -45 8 c-25 5 -79 8
-120 8 -94 0 -166 -30 -243 -103 -75 -71 -108 -143 -114 -245 -5 -91 7 -124
44 -112 11 3 62 50 113 103 52 52 110 102 128 110 72 30 162 2 202 -61 22 -37
27 -114 9 -149 -6 -12 -58 -70 -115 -128 -57 -58 -104 -113 -104 -121 0 -30
30 -42 98 -41 102 2 174 33 248 107 78 79 114 163 114 267 0 40 -5 89 -12 111
l-12 39 520 520 c285 286 526 524 534 529 9 5 37 2 70 -6 31 -9 76 -13 105
-10 46 4 90 12 90 16 0 1 7 3 16 5 34 6 108 57 149 101 59 64 92 142 98 229 5
77 -7 115 -36 115 -10 0 -60 -43 -112 -96 -96 -97 -151 -133 -204 -134 -45 0
-113 37 -136 74 -23 38 -27 118 -7 154 7 13 59 69 115 126 56 57 102 108 102
113 0 46 -86 64 -180 37z m149 -24 c9 0 -33 -49 -96 -112 -62 -62 -117 -126
-122 -141 -42 -112 36 -241 153 -254 77 -9 111 10 234 130 l112 111 0 -72 c0
-102 -28 -172 -99 -243 -79 -78 -146 -103 -261 -95 -47 3 -98 8 -115 11 -29 6
-55 -19 -570 -534 l-539 -540 14 -53 c45 -169 -28 -339 -177 -413 -46 -23 -75
-29 -143 -33 l-85 -4 106 109 c59 59 114 122 123 140 52 105 -23 248 -138 260
-92 11 -111 1 -240 -125 l-118 -117 4 90 c6 112 32 169 113 243 42 39 72 57
122 72 79 24 119 25 196 3 l59 -16 545 545 546 546 -14 49 c-22 77 -16 170 15
239 31 68 93 136 151 167 50 26 141 47 179 42 16 -3 36 -5 45 -5z"/>
<path d="M583 2690 c-27 -11 -31 -51 -8 -70 32 -27 100 12 87 50 -10 30 -38
37 -79 20z m32 -42 c-19 -11 -30 -5 -21 11 4 6 14 7 22 4 15 -5 14 -7 -1 -15z"/>
<path d="M1413 2556 c-109 -65 -103 -55 -103 -166 0 -80 3 -99 18 -112 27 -22
159 -98 172 -98 13 0 147 76 173 98 14 12 17 32 17 112 0 80 -3 100 -17 112
-29 24 -160 98 -175 97 -7 0 -45 -19 -85 -43z m168 -33 l69 -38 0 -96 0 -95
-75 -43 -75 -43 -78 45 -77 45 -3 90 -3 90 73 41 c40 22 79 41 87 41 7 0 44
-17 82 -37z"/>
<path d="M1449 2514 c-75 -43 -79 -49 -79 -125 0 -63 2 -69 31 -93 17 -14 37
-26 45 -26 8 0 14 -4 14 -10 0 -22 50 -22 87 1 76 45 83 56 83 130 0 65 -1 69
-33 93 -18 14 -49 32 -68 40 -33 14 -38 13 -80 -10z m104 -34 l47 -24 0 -65 0
-66 -49 -27 -49 -27 -51 27 -51 27 2 64 3 65 45 27 c25 15 47 26 50 25 3 -1
26 -12 53 -26z"/>
<path d="M588 2433 c-38 -38 -74 -75 -78 -84 -12 -21 41 -218 60 -229 8 -4 51
-17 95 -29 44 -12 87 -24 97 -27 11 -3 39 18 85 63 103 102 98 87 68 200 -15
54 -32 103 -38 110 -10 10 -187 63 -210 63 -5 0 -40 -30 -79 -67z m181 6 c42
-11 81 -26 88 -32 13 -14 43 -127 43 -164 0 -32 -112 -143 -143 -142 -12 0
-56 10 -97 22 l-75 22 -18 54 c-10 30 -21 74 -24 98 -6 43 -5 45 53 103 32 32
68 59 78 59 11 1 54 -8 95 -20z"/>
<path d="M625 2388 c-58 -58 -63 -73 -45 -140 6 -21 10 -39 9 -40 -1 -2 3 -13
10 -25 8 -16 33 -29 81 -44 l69 -21 30 21 c49 35 91 90 91 119 0 38 -23 109
-42 132 -9 10 -34 23 -55 29 -99 26 -89 28 -148 -31z m150 -2 c38 -11 41 -14
57 -76 l18 -65 -48 -47 -47 -47 -64 18 -64 18 -18 64 -18 64 46 47 c50 51 45
50 138 24z"/>
<path d="M161 1894 c0 -11 3 -14 6 -6 3 7 2 16 -1 19 -3 4 -6 -2 -5 -13z"/>
<path d="M526 1668 c-46 -75 -86 -151 -86 -165 0 -25 79 -161 103 -178 27 -19
186 -21 209 -2 8 6 36 49 62 95 l47 83 -32 57 c-18 31 -43 74 -56 95 l-23 37
-105 0 c-98 0 -105 -1 -119 -22z m255 -83 c21 -33 38 -69 38 -80 0 -11 -16
-49 -37 -85 l-38 -65 -87 -5 c-48 -3 -92 -3 -97 -2 -13 5 -90 136 -90 154 0 7
17 42 38 78 35 60 40 65 77 70 22 3 67 3 99 0 l59 -5 38 -60z"/>
<path d="M579 1627 c-9 -7 -31 -36 -49 -65 l-33 -54 24 -50 c31 -66 70 -98
119 -98 65 0 84 13 120 82 l33 65 -32 56 c-18 32 -41 62 -51 67 -26 14 -112
12 -131 -3z m151 -64 c16 -27 30 -53 30 -59 0 -6 -12 -32 -26 -58 l-26 -46
-62 0 -62 0 -28 53 -29 52 33 53 32 52 54 0 c54 0 54 0 84 -47z"/>
<path d="M2227 1653 c-13 -21 -38 -64 -56 -95 l-32 -57 47 -83 c26 -46 54 -89
62 -95 23 -19 182 -17 209 2 24 17 103 153 103 178 0 19 -78 158 -98 175 -10
8 -50 12 -114 12 l-98 0 -23 -37z m266 -73 c20 -38 37 -75 37 -82 0 -6 -18
-43 -41 -80 l-40 -69 -97 3 -97 3 -37 65 c-21 36 -38 73 -38 82 0 10 18 48 40
85 l41 68 97 -3 97 -3 38 -69z"/>
<path d="M2271 1611 c-15 -16 -35 -48 -46 -71 l-19 -42 31 -56 c38 -69 62 -84
126 -79 56 5 76 21 113 91 l27 53 -36 60 c-42 69 -49 73 -119 73 -42 0 -54 -4
-77 -29z m172 -56 l29 -50 -28 -52 -28 -53 -62 0 -62 0 -26 46 c-14 26 -26 52
-26 58 0 6 14 32 30 58 l29 47 58 -2 57 -2 29 -50z"/>
<path d="M2137 861 c-42 -43 -77 -82 -77 -85 0 -16 54 -202 61 -210 4 -4 54
-21 110 -36 l103 -28 84 82 83 82 -27 99 c-15 55 -32 105 -38 112 -10 11 -185
63 -212 63 -6 0 -45 -35 -87 -79z m199 17 c94 -25 88 -17 116 -151 l12 -58
-67 -66 -66 -67 -88 23 c-48 12 -93 28 -99 34 -14 15 -44 128 -44 164 0 33
103 143 133 143 11 0 57 -10 103 -22z"/>
<path d="M2184 829 c-58 -56 -63 -71 -43 -144 19 -75 28 -84 101 -106 l69 -20
34 26 c19 14 47 42 62 61 26 35 26 37 14 96 -13 66 -27 94 -51 104 -17 6 -118
34 -126 34 -3 0 -30 -23 -60 -51z m130 3 l59 -18 18 -62 18 -62 -48 -48 -48
-48 -63 17 c-34 10 -63 19 -64 21 -1 2 -10 30 -19 63 l-16 60 47 48 c25 26 49
47 52 47 3 0 32 -8 64 -18z"/>
<path d="M1410 779 c-103 -62 -100 -57 -100 -158 0 -49 3 -96 6 -105 3 -9 46
-39 96 -67 l89 -51 82 47 c45 26 88 54 95 63 13 17 17 189 4 208 -13 21 -163
104 -185 103 -12 0 -51 -18 -87 -40z m181 -37 l59 -37 0 -93 0 -92 -32 -20
c-18 -11 -52 -30 -76 -42 l-43 -23 -62 34 c-98 53 -97 52 -97 147 l0 84 77 45
c49 29 84 43 96 39 10 -3 45 -22 78 -42z"/>
<path d="M1448 736 c-73 -44 -78 -53 -78 -127 0 -65 1 -69 33 -92 17 -14 47
-32 65 -41 33 -17 34 -17 95 21 l62 39 3 68 c3 77 -1 86 -67 128 -54 34 -65
34 -113 4z m104 -33 l49 -27 -3 -64 -3 -63 -47 -27 -48 -27 -47 27 -48 27 -3
63 -3 63 48 27 c26 15 50 28 52 28 2 0 25 -12 53 -27z"/>
<path d="M2520 470 c-23 -23 -26 -50 -8 -68 18 -18 42 -14 66 11 26 28 27 40
6 61 -21 21 -40 20 -64 -4z m40 -30 c0 -5 -7 -10 -16 -10 -8 0 -12 5 -9 10 3
6 10 10 16 10 5 0 9 -4 9 -10z"/>
</g>
</svg>
